# xmcd
#
# Track frame offsets:
# 150
# 11701
# 24340
# 35094
# 48105
# 58886
# 67577
# 80683
# 91379
# 101765
# 111156
# 122364
# 133643
# 145574
#
# Disc length: 2088 seconds
#
#
# Revision: 1
# Processed by: cddbd v1.5.2PL0 Copyright (c) Steve Scherf et al.
# Submitted via: FreeRIP 2.951 
#
DISCID=b208260e
DTITLE=Patsy Cline - Patsy Cline  CD1
DYEAR=1900
DGENRE=Country
TTITLE0=Walking After Midnight
TTITLE1=Fingerprints
TTITLE2=Honky Tonk Merry Go Round
TTITLE3=Life's Railway To Heaven
TTITLE4=I Can See An Angel Walking
TTITLE5=Ani't No Wheels On This Ship
TTITLE6=If I Could See The World
TTITLE7=I Don't Wanna
TTITLE8=Pick Me Up On Your Way Down
TTITLE9=Come On In
TTITLE10=Hiding Out
TTITLE11=Hungry For Love
TTITLE12=If I Could Only Stay Asleep
TTITLE13=Cry Not for Me
EXTD=Brittel
EXTT0=
EXTT1=
EXTT2=
EXTT3=
EXTT4=
EXTT5=
EXTT6=
EXTT7=
EXTT8=
EXTT9=
EXTT10=
EXTT11=
EXTT12=
EXTT13=
PLAYORDER=
